<svg width="900" height="900" viewBox="0 0 900 900" fill="none" xmlns="http://www.w3.org/2000/svg">
<path fill-rule="evenodd" clip-rule="evenodd" d="M449.795 610.875C566.015 610.875 682.235 624.035 796.205 650.355C716.426 564.814 646.919 470.745 588.809 370.095C530.699 269.446 483.986 162.216 449.795 50.355C415.604 162.216 368.891 269.446 310.781 370.095C252.671 470.745 183.164 564.814 103.385 650.355C217.355 624.035 333.575 610.875 449.795 610.875ZM363.762 499.345C391.377 547.174 452.536 563.562 500.365 535.947C548.194 508.333 564.582 447.174 536.967 399.345C509.353 351.516 448.194 335.128 400.365 362.742C352.536 390.357 336.148 451.516 363.762 499.345Z" fill="#070E1F"/>
<path d="M474.251 406.711C498.166 420.519 506.359 451.098 492.552 475.013C478.745 498.927 448.166 507.121 424.251 493.314C400.336 479.507 392.143 448.927 405.95 425.013C419.757 401.098 450.336 392.904 474.251 406.711Z" fill="#070E1F"/>
</svg>
