<svg width="900" height="900" viewBox="0 0 900 900" fill="none" xmlns="http://www.w3.org/2000/svg">
<path fill-rule="evenodd" clip-rule="evenodd" d="M796 650C636.631 478.918 518.301 273.722 450 50C381.699 273.722 263.369 478.918 104 650C331.67 597.359 568.33 597.359 796 650ZM450 550C505.229 550 550 505.228 550 450C550 394.772 505.229 350 450 350C394.771 350 350 394.772 350 450C350 505.228 394.771 550 450 550Z" fill="#070E1F"/>
<path d="M450 500C477.614 500 500 477.614 500 450C500 422.386 477.614 400 450 400C422.386 400 400 422.386 400 450C400 477.614 422.386 500 450 500Z" fill="#070E1F"/>
</svg>
